<svg xmlns="http://www.w3.org/2000/svg" xmlns:xlink="http://www.w3.org/1999/xlink" viewBox="1723.313 612.331 440.261 107.05">
  <defs>
    <style>
      .cls-1 {
        fill: #fff;
        stroke: rgba(0,0,0,0);
      }

      .cls-2 {
        fill: #ba274a;
      }

      .cls-3 {
        fill: url(#linear-gradient);
      }
    </style>
    <linearGradient id="linear-gradient" x1="0.531" y1="0.071" x2="0.5" y2="1" gradientUnits="objectBoundingBox">
      <stop offset="0" stop-color="#ba274a"/>
      <stop offset="1" stop-color="#720000"/>
    </linearGradient>
  </defs>
  <g id="Group_4465" data-name="Group 4465" transform="translate(353 -553)">
    <g id="Group_4461" data-name="Group 4461" transform="translate(61.998 26.551)">
      <g id="Group_2" data-name="Group 2" transform="translate(1452.744 1118.555)">
        <path id="Path_94" data-name="Path 94" class="cls-1" d="M23.436.84A18.846,18.846,0,0,1,15.2-.966,20.576,20.576,0,0,1,8.652-5.88a22.768,22.768,0,0,1-4.326-7.266,25.348,25.348,0,0,1-1.554-8.946,25.421,25.421,0,0,1,1.47-8.694,23.013,23.013,0,0,1,4.116-7.182,19.888,19.888,0,0,1,6.216-4.914,17.147,17.147,0,0,1,7.854-1.806,17.009,17.009,0,0,1,9.324,2.562,18.665,18.665,0,0,1,6.3,6.51v-25.7h9.24v50.4a3.641,3.641,0,0,0,.546,2.268,2.642,2.642,0,0,0,1.974.756V0Q48.384.252,47.5.336T46.032.42A6.98,6.98,0,0,1,41.5-1.008a5.047,5.047,0,0,1-1.932-3.7L39.4-7.98A17.524,17.524,0,0,1,32.76-1.512,18.754,18.754,0,0,1,23.436.84Zm2.268-7.9a12.684,12.684,0,0,0,4.032-.672,14.279,14.279,0,0,0,3.7-1.848,12.988,12.988,0,0,0,2.9-2.772,9.959,9.959,0,0,0,1.722-3.444V-27.3a13.76,13.76,0,0,0-2.142-3.864,15.322,15.322,0,0,0-3.15-3.024,14.383,14.383,0,0,0-3.738-1.932,12.307,12.307,0,0,0-3.99-.672,10.439,10.439,0,0,0-5.082,1.26,13.108,13.108,0,0,0-3.99,3.36,16.565,16.565,0,0,0-2.646,4.788,16.272,16.272,0,0,0-.966,5.544,15.558,15.558,0,0,0,1.05,5.712,14.917,14.917,0,0,0,2.9,4.7,14.223,14.223,0,0,0,4.242,3.192A11.558,11.558,0,0,0,25.7-7.056ZM78.96.84A23.366,23.366,0,0,1,69.636-.966,21.7,21.7,0,0,1,62.454-5.88a22.153,22.153,0,0,1-4.62-7.224A23.407,23.407,0,0,1,56.2-21.84a23.732,23.732,0,0,1,1.638-8.778,22.526,22.526,0,0,1,4.62-7.308,21.4,21.4,0,0,1,7.182-4.956,23.587,23.587,0,0,1,9.408-1.806,22.61,22.61,0,0,1,9.282,1.848,22.193,22.193,0,0,1,7.1,4.914,21.025,21.025,0,0,1,4.494,7.14,23.72,23.72,0,0,1,1.554,8.526q0,1.008-.084,1.89t-.168,1.47h-35.2a15.041,15.041,0,0,0,1.386,5.292,13.926,13.926,0,0,0,2.94,4.074,12.8,12.8,0,0,0,4.116,2.646,12.886,12.886,0,0,0,4.83.924,14.688,14.688,0,0,0,3.654-.462A12.884,12.884,0,0,0,86.268-7.77a11.759,11.759,0,0,0,2.688-2.142A9.994,9.994,0,0,0,90.8-12.684l7.9,2.268A18.308,18.308,0,0,1,91.182-2.31,23.3,23.3,0,0,1,78.96.84ZM92.316-25.284a14.775,14.775,0,0,0-1.386-5.124,13.194,13.194,0,0,0-2.9-3.99,12.931,12.931,0,0,0-4.116-2.562,13.432,13.432,0,0,0-4.956-.924,13.107,13.107,0,0,0-4.914.924A13.049,13.049,0,0,0,69.972-34.4a12.629,12.629,0,0,0-2.856,3.99,15.376,15.376,0,0,0-1.344,5.124ZM120.708.84a16.359,16.359,0,0,1-5.922-1.05,14.314,14.314,0,0,1-4.7-2.9,13.513,13.513,0,0,1-3.108-4.368,13.15,13.15,0,0,1-1.134-5.46,11.769,11.769,0,0,1,1.344-5.628,13.154,13.154,0,0,1,3.822-4.368,18.552,18.552,0,0,1,5.88-2.856A26.4,26.4,0,0,1,124.4-26.8a34.441,34.441,0,0,1,6.132.546A30.881,30.881,0,0,1,136-24.78V-27.8a10.186,10.186,0,0,0-2.772-7.6q-2.772-2.73-7.98-2.73a19.242,19.242,0,0,0-6.93,1.3A35.058,35.058,0,0,0,111.3-33.1l-2.856-5.88a31.15,31.15,0,0,1,17.64-5.712q9.072,0,14.112,4.62t5.04,13.272V-10.92q0,2.94,2.436,3.024V0q-1.344.252-2.31.336t-1.89.084a5.942,5.942,0,0,1-4.158-1.344,5.746,5.746,0,0,1-1.806-3.444l-.252-2.772a19.59,19.59,0,0,1-7.266,5.922A21.331,21.331,0,0,1,120.708.84Zm2.52-6.8a16.609,16.609,0,0,0,6.342-1.218,10.935,10.935,0,0,0,4.662-3.4A4.26,4.26,0,0,0,136-13.776v-5.8A27.931,27.931,0,0,0,131-21a27.579,27.579,0,0,0-5.166-.5,14.128,14.128,0,0,0-8.106,2.142,6.564,6.564,0,0,0-3.15,5.67,7.156,7.156,0,0,0,2.436,5.5A8.858,8.858,0,0,0,123.228-5.964ZM156.492-61.32h9.24v48.636a5.471,5.471,0,0,0,1.26,3.822,4.526,4.526,0,0,0,3.528,1.386,8.193,8.193,0,0,0,2.142-.336q1.218-.336,2.31-.756l1.344,7.224a21.5,21.5,0,0,1-4.788,1.47,25.938,25.938,0,0,1-4.956.546q-4.788,0-7.434-2.6t-2.646-7.392ZM248.892,0h-9.24V-24.612q0-6.132-2.016-8.988a6.744,6.744,0,0,0-5.88-2.856,10.512,10.512,0,0,0-7.182,2.9,16.313,16.313,0,0,0-4.662,7.518V0h-9.24V-24.612q0-6.216-2.016-9.03a6.7,6.7,0,0,0-5.8-2.814,10.749,10.749,0,0,0-7.224,2.856,15.882,15.882,0,0,0-4.7,7.476V0h-9.24V-43.932h8.4v8.82a18.565,18.565,0,0,1,6.846-7.1,18.876,18.876,0,0,1,9.7-2.478q5.46,0,8.61,2.856a12.237,12.237,0,0,1,3.906,7.14,20.114,20.114,0,0,1,6.972-7.434,18.018,18.018,0,0,1,9.576-2.562,12.761,12.761,0,0,1,6.426,1.47,11.363,11.363,0,0,1,4.074,3.906,16.107,16.107,0,0,1,2.1,5.67,38.243,38.243,0,0,1,.588,6.846Zm22.344.84a16.359,16.359,0,0,1-5.922-1.05,14.315,14.315,0,0,1-4.7-2.9A13.513,13.513,0,0,1,257.5-7.476a13.15,13.15,0,0,1-1.134-5.46,11.769,11.769,0,0,1,1.344-5.628,13.154,13.154,0,0,1,3.822-4.368,18.552,18.552,0,0,1,5.88-2.856,26.4,26.4,0,0,1,7.518-1.008,34.441,34.441,0,0,1,6.132.546,30.881,30.881,0,0,1,5.46,1.47V-27.8a10.186,10.186,0,0,0-2.772-7.6q-2.772-2.73-7.98-2.73a19.242,19.242,0,0,0-6.93,1.3,35.058,35.058,0,0,0-7.014,3.738l-2.856-5.88a31.15,31.15,0,0,1,17.64-5.712q9.072,0,14.112,4.62t5.04,13.272V-10.92q0,2.94,2.436,3.024V0q-1.344.252-2.31.336T294,.42a5.942,5.942,0,0,1-4.158-1.344,5.746,5.746,0,0,1-1.806-3.444l-.252-2.772a19.59,19.59,0,0,1-7.266,5.922A21.331,21.331,0,0,1,271.236.84Zm2.52-6.8A16.609,16.609,0,0,0,280.1-7.182a10.935,10.935,0,0,0,4.662-3.4,4.26,4.26,0,0,0,1.764-3.192v-5.8a27.931,27.931,0,0,0-5-1.428,27.579,27.579,0,0,0-5.166-.5,14.128,14.128,0,0,0-8.106,2.142,6.564,6.564,0,0,0-3.15,5.67,7.156,7.156,0,0,0,2.436,5.5A8.858,8.858,0,0,0,273.756-5.964ZM346.332,0h-9.24V-24.612q0-6.216-1.974-9.03a6.67,6.67,0,0,0-5.838-2.814,11.414,11.414,0,0,0-4.032.756,14.12,14.12,0,0,0-3.78,2.142,16.685,16.685,0,0,0-3.15,3.276,15.011,15.011,0,0,0-2.142,4.158V0h-9.24V-43.932h8.4v8.82a17.847,17.847,0,0,1,7.308-7.014,22.076,22.076,0,0,1,10.584-2.562A13.016,13.016,0,0,1,339.7-43.26a10.684,10.684,0,0,1,3.99,3.906,17.087,17.087,0,0,1,2.058,5.712,38.243,38.243,0,0,1,.588,6.846Z" transform="translate(-51 104)"/>
      </g>
      <g id="Group_4460" data-name="Group 4460" transform="translate(1492.883 1137.004) rotate(90)">
        <ellipse id="topo" class="cls-2" cx="10.057" cy="10.286" rx="10.057" ry="10.286" transform="translate(65.503 158.341) rotate(180)"/>
        <path id="topo-2" data-name="topo" class="cls-3" d="M0,10.979V.226L27.568,0s-4.223,21.813,17.68,29.754A26.14,26.14,0,0,0,75.1,20.47l9.647,5.554S73.787,46.365,47.159,41.689c-27.5-5.651-29.2-30.71-29.2-30.71Z" transform="translate(108.826 153.387) rotate(180)"/>
        <path id="topo-3" data-name="topo" class="cls-3" d="M1.776,10.752V0h27.8s-4.223,21.814,17.68,29.755A26.14,26.14,0,0,0,77.113,20.47l9.647,5.554S75.8,46.365,49.171,41.689c-27.5-5.651-29.2-30.71-29.2-30.71Z" transform="translate(0 142.18)"/>
      </g>
    </g>
  </g>
</svg>
